<svg width="208" height="38" viewBox="0 0 208 38" fill="none" xmlns="http://www.w3.org/2000/svg">
<path d="M26.065 28.9984C27.2939 28.9984 28.2901 27.9769 28.2901 26.7169C28.2901 25.4569 27.2939 24.4354 26.065 24.4354C24.8361 24.4354 23.8398 25.4569 23.8398 26.7169C23.8398 27.9769 24.8361 28.9984 26.065 28.9984Z" fill="#009487"/>
<path fill-rule="evenodd" clip-rule="evenodd" d="M11.0109 9.00164C10.5788 9.00832 10.1582 9.14646 9.80207 9.39869C9.44591 9.65093 9.17005 10.006 9.00915 10.4193C8.84826 10.8326 8.80951 11.2857 8.89777 11.7216C8.98604 12.1575 9.19738 12.5569 9.50524 12.8694C9.8131 13.1819 10.2037 13.3937 10.6281 13.4782C11.0524 13.5626 11.4915 13.5159 11.8902 13.344C12.2888 13.1721 12.6293 12.8826 12.8688 12.5119C13.1082 12.1412 13.236 11.7058 13.236 11.2605C13.2288 10.6579 12.991 10.0825 12.5744 9.65952C12.1577 9.23653 11.5958 9.00011 11.0109 9.00164V9.00164Z" fill="#009487"/>
<path fill-rule="evenodd" clip-rule="evenodd" d="M0 0V38H37.0763V0H0ZM24.7395 9.50424V5.96909H28.0278V16.5971H24.7395V9.50424ZM12.4903 28.4619V31.997H9.20194V21.369H12.4903V28.4619ZM11.0105 17.0602C9.9026 17.0535 8.82143 16.7087 7.90352 16.0693C6.98562 15.43 6.27213 14.5248 5.85314 13.4679C5.43415 12.411 5.32844 11.25 5.54936 10.1313C5.77029 9.01256 6.30793 7.98638 7.09443 7.18228C7.88092 6.37818 8.881 5.83221 9.96839 5.61331C11.0558 5.39441 12.1818 5.51239 13.2041 5.95235C14.2265 6.39231 15.0994 7.13453 15.7128 8.0853C16.3261 9.03607 16.6522 10.1528 16.6501 11.2944C16.6472 12.0545 16.4991 12.8067 16.2141 13.5078C15.9291 14.2089 15.5129 14.8454 14.9892 15.3808C14.4656 15.9162 13.8447 16.3401 13.162 16.6282C12.4793 16.9164 11.7483 17.0632 11.0105 17.0602V17.0602ZM26.0658 32.494C24.9581 32.4884 23.8768 32.1448 22.9584 31.5067C22.04 30.8685 21.3256 29.9643 20.9055 28.9082C20.4853 27.8521 20.3782 26.6914 20.5976 25.5726C20.817 24.4539 21.3532 23.4271 22.1383 22.622C22.9235 21.8169 23.9226 21.2695 25.0094 21.0488C26.0962 20.8282 27.2221 20.9442 28.245 21.3823C29.2679 21.8204 30.1419 22.5609 30.7568 23.5103C31.3717 24.4597 31.6998 25.5755 31.6998 26.7169C31.6955 28.2526 31.0996 29.7237 30.0432 30.8069C28.9867 31.8902 27.5562 32.497 26.0658 32.494V32.494Z" fill="#009487"/>
<path d="M61.6847 16.9416C62.5417 17.4011 63.2543 18.1022 63.7395 18.963C64.2246 19.8239 64.4624 20.8091 64.425 21.8038C64.4483 22.6393 64.2924 23.4698 63.9684 24.2361C63.6444 25.0024 63.1603 25.6855 62.5506 26.2369C61.2821 27.3981 59.6321 28.018 57.9359 27.9706H49.0957V6.67499H57.3166C58.9745 6.62823 60.5874 7.23403 61.8272 8.36915C62.4202 8.90388 62.8917 9.56667 63.2081 10.3104C63.5245 11.0541 63.678 11.8605 63.6577 12.6723C63.6823 13.4944 63.5161 14.3106 63.1729 15.0532C62.8298 15.7957 62.3195 16.4431 61.6847 16.9416V16.9416ZM57.3002 10.6224H53.2062V15.2474H57.3111C57.6072 15.2556 57.9017 15.2007 58.1761 15.086C58.4506 14.9713 58.6991 14.7994 58.906 14.5811C59.3119 14.1249 59.5371 13.5284 59.5371 12.9095C59.5371 12.2906 59.3119 11.6941 58.906 11.2379C58.6978 11.0228 58.4486 10.8546 58.1741 10.7437C57.8996 10.6329 57.6057 10.582 57.3111 10.5941L57.3002 10.6224ZM57.925 24.0514C58.2451 24.0606 58.5637 24.0016 58.8607 23.8782C59.1578 23.7548 59.4269 23.5696 59.6514 23.3342C60.0913 22.8472 60.3359 22.2066 60.3359 21.5412C60.3359 20.8759 60.0913 20.2353 59.6514 19.7483C59.4266 19.5136 59.1573 19.3292 58.8602 19.2068C58.5632 19.0844 58.2448 19.0265 57.925 19.0367H53.2062V24.0514H57.925Z" fill="#009487"/>
<path d="M76.6246 12.7514H80.735L75.3147 27.9423C74.5438 30.1297 73.5171 31.7147 72.2346 32.6973C70.8456 33.7065 69.1539 34.1748 67.461 34.0187V30.3706C68.3287 30.4372 69.193 30.2026 69.9163 29.7043C70.6007 29.1126 71.1018 28.3273 71.3577 27.4454L65.2578 12.7627H69.456L73.3253 22.9672L76.6246 12.7514Z" fill="#009487"/>
<path d="M91.0595 16.5181H87.689V22.8373C87.6737 23.0426 87.6999 23.249 87.766 23.4434C87.832 23.6378 87.9364 23.816 88.0726 23.9667C88.3926 24.2323 88.7907 24.3777 89.2016 24.379C89.8168 24.4121 90.4333 24.4121 91.0486 24.379V27.9367C88.4124 28.236 86.549 27.9875 85.4693 27.1743C84.3896 26.3611 83.8251 24.9154 83.8251 22.8316V16.5181H81.2383V12.7514H83.8525V9.6793L87.689 8.49904V12.7514H91.0486L91.0595 16.5181Z" fill="#009487"/>
<path d="M96.5689 21.9563C97.0841 23.8613 98.4834 24.8138 100.767 24.8138C101.4 24.8547 102.033 24.738 102.613 24.4736C103.193 24.2092 103.703 23.8049 104.099 23.2947L107.196 25.1131C105.734 27.2816 103.571 28.3659 100.707 28.3659C98.2441 28.3659 96.2693 27.6129 94.7822 26.107C94.0423 25.3558 93.462 24.4544 93.078 23.4599C92.694 22.4654 92.5147 21.3995 92.5516 20.3299C92.5247 19.2636 92.7101 18.2029 93.0963 17.2132C93.4826 16.2235 94.0615 15.3258 94.7974 14.5755C95.5332 13.8252 96.4104 13.2382 97.3749 12.8507C98.3394 12.4631 99.3708 12.2833 100.405 12.3222C101.413 12.2912 102.416 12.481 103.348 12.8792C104.279 13.2773 105.118 13.8747 105.809 14.6319C107.223 16.1657 107.988 18.2152 107.936 20.3299C107.932 20.8698 107.883 21.4084 107.788 21.9394L96.5689 21.9563ZM96.5086 18.9181H104.099C103.948 17.9993 103.465 17.1737 102.746 16.6084C102.065 16.1032 101.244 15.8378 100.405 15.8517C99.4888 15.8139 98.5868 16.0965 97.8459 16.6536C97.1541 17.2216 96.6803 18.024 96.5086 18.9181V18.9181Z" fill="#009487"/>
<path d="M110.615 27.9423V5.76015H114.452V27.9423H110.615Z" fill="#009487"/>
<path d="M129.277 12.7514H133.114V27.9423H129.277V26.1465C128.693 26.8857 127.948 27.4721 127.102 27.8579C126.256 28.2436 125.334 28.4176 124.41 28.3659C123.447 28.3748 122.494 28.1719 121.613 27.7707C120.732 27.3695 119.944 26.7792 119.303 26.0392C117.894 24.4989 117.135 22.4458 117.193 20.3299C117.143 18.2158 117.908 16.1674 119.319 14.6319C119.961 13.8983 120.747 13.3132 121.625 12.9151C122.502 12.517 123.452 12.315 124.41 12.3222C125.331 12.2731 126.25 12.4485 127.093 12.8342C127.936 13.2198 128.679 13.8047 129.261 14.5415L129.277 12.7514ZM122.218 23.4302C122.605 23.8256 123.066 24.1357 123.573 24.3416C124.08 24.5474 124.622 24.6447 125.167 24.6274C125.716 24.6443 126.263 24.5442 126.773 24.3334C127.283 24.1226 127.746 23.8056 128.131 23.4022C128.517 22.9989 128.818 22.5178 129.015 21.9892C129.212 21.4605 129.302 20.8957 129.277 20.3299C129.299 19.7631 129.206 19.1977 129.006 18.6692C128.806 18.1407 128.503 17.6604 128.114 17.2582C127.726 16.856 127.262 16.5406 126.75 16.3316C126.238 16.1227 125.69 16.0246 125.139 16.0437C124.598 16.0323 124.059 16.1345 123.557 16.3442C123.055 16.5539 122.599 16.8667 122.218 17.2635C121.829 17.6648 121.523 18.1438 121.32 18.671C121.116 19.1982 121.019 19.7627 121.034 20.3299C121.016 20.9026 121.111 21.4733 121.314 22.0065C121.518 22.5398 121.826 23.0243 122.218 23.4302V23.4302Z" fill="#009487"/>
<path d="M144.87 12.3222C145.619 12.3014 146.365 12.4413 147.059 12.7329C147.754 13.0245 148.382 13.4616 148.904 14.0164C149.967 15.1458 150.498 16.6705 150.498 18.6358V27.9423H146.662V19.0988C146.689 18.6762 146.632 18.2523 146.495 17.8531C146.357 17.454 146.142 17.088 145.862 16.7778C145.575 16.5033 145.237 16.2905 144.869 16.1518C144.501 16.0132 144.11 15.9514 143.719 15.9703C143.277 15.9527 142.836 16.0299 142.425 16.1971C142.014 16.3643 141.641 16.6179 141.329 16.9416C140.683 17.725 140.362 18.7395 140.436 19.7652V27.9423H136.6V12.7514H140.436V14.4455C141.401 13.0337 142.847 12.3222 144.87 12.3222Z" fill="#009487"/>
<path d="M160.856 28.3659C159.817 28.3964 158.783 28.2072 157.818 27.8099C156.852 27.4127 155.976 26.8158 155.244 26.0562C154.508 25.3115 153.929 24.4188 153.542 23.4337C153.156 22.4486 152.97 21.3921 152.997 20.3299C152.973 19.2697 153.16 18.2157 153.546 17.2328C153.932 16.2499 154.51 15.3589 155.244 14.615C155.977 13.8564 156.853 13.2603 157.818 12.8631C158.783 12.4659 159.817 12.2761 160.856 12.3053C162.244 12.2892 163.61 12.6578 164.813 13.3726C165.962 14.0367 166.901 15.0265 167.52 16.2244L164.232 18.2009C163.937 17.5744 163.465 17.0547 162.878 16.7101C162.26 16.3361 161.556 16.141 160.839 16.1453C160.311 16.1269 159.785 16.2213 159.293 16.4224C158.802 16.6236 158.356 16.9272 157.984 17.3143C157.608 17.7075 157.313 18.1759 157.119 18.6906C156.925 19.2053 156.835 19.7555 156.855 20.3073C156.836 20.8528 156.926 21.3965 157.119 21.9047C157.312 22.4129 157.605 22.8748 157.978 23.2618C158.352 23.6488 158.798 23.9526 159.291 24.1545C159.783 24.3564 160.31 24.452 160.839 24.4354C161.563 24.449 162.278 24.266 162.911 23.9046C163.498 23.5673 163.97 23.053 164.265 22.4307L167.597 24.379C166.947 25.5692 166.001 26.5595 164.857 27.2477C163.648 27.9916 162.264 28.3785 160.856 28.3659V28.3659Z" fill="#009487"/>
<path d="M172.638 21.9563C173.154 23.8613 174.553 24.8138 176.837 24.8138C177.469 24.8547 178.103 24.738 178.683 24.4736C179.263 24.2092 179.772 23.8049 180.169 23.2947L183.265 25.1131C181.804 27.2816 179.641 28.3659 176.776 28.3659C174.314 28.3659 172.339 27.6129 170.852 26.107C170.107 25.3582 169.521 24.4579 169.133 23.4633C168.744 22.4687 168.56 21.4016 168.594 20.3299C168.567 19.2611 168.753 18.1979 169.141 17.2063C169.529 16.2146 170.11 15.3156 170.849 14.5649C171.588 13.8142 172.468 13.2278 173.436 12.842C174.404 12.4562 175.438 12.2793 176.475 12.3222C177.483 12.2912 178.486 12.481 179.417 12.8792C180.349 13.2773 181.188 13.8747 181.879 14.6319C183.282 16.1702 184.037 18.2192 183.978 20.3299C183.974 20.8698 183.925 21.4084 183.83 21.9394L172.638 21.9563ZM172.578 18.9181H180.169C180.018 17.9993 179.534 17.1737 178.815 16.6084C178.134 16.1032 177.314 15.8378 176.475 15.8517C175.558 15.8139 174.656 16.0965 173.915 16.6536C173.213 17.217 172.729 18.02 172.551 18.9181H172.578Z" fill="#009487"/>
<path d="M190.496 15.3604C190.816 14.437 191.446 13.6619 192.272 13.1749C193.106 12.6866 194.052 12.4352 195.012 12.4464V16.823C193.914 16.6644 192.797 16.9234 191.871 17.5515C190.951 18.1783 190.485 19.2456 190.485 20.68V27.9423H186.648V12.7514H190.485L190.496 15.3604Z" fill="#009487"/>
<path d="M200.322 17.0658C200.322 17.4724 200.585 17.8 201.111 18.0541C201.729 18.3382 202.371 18.5613 203.029 18.7205C203.795 18.9168 204.549 19.1601 205.287 19.449C206.049 19.7466 206.715 20.257 207.211 20.9229C207.754 21.6642 208.033 22.5755 208 23.5036C208.033 24.2046 207.893 24.9026 207.593 25.5326C207.293 26.1626 206.843 26.7041 206.285 27.1066C205.028 27.9843 203.532 28.4255 202.015 28.3659C198.963 28.3659 196.875 27.163 195.768 24.7517L199.1 22.8373C199.533 24.1531 200.508 24.8138 202.015 24.8138C203.386 24.8138 204.071 24.3733 204.071 23.5036C204.071 23.097 203.808 22.7695 203.281 22.5154C202.662 22.2318 202.02 22.0032 201.363 21.8321C200.594 21.6295 199.838 21.3767 199.1 21.0753C198.349 20.774 197.688 20.2757 197.182 19.6297C196.64 18.9288 196.36 18.0513 196.392 17.1562C196.367 16.4729 196.504 15.7936 196.79 15.1767C197.077 14.5599 197.504 14.0241 198.037 13.6154C199.201 12.7268 200.622 12.271 202.07 12.3222C203.217 12.3116 204.348 12.599 205.359 13.158C206.347 13.71 207.163 14.5379 207.715 15.5467L204.427 17.3708C204.234 16.8907 203.902 16.4836 203.476 16.2047C203.051 15.9259 202.552 15.7888 202.048 15.8122C201.613 15.7958 201.182 15.9117 200.81 16.1453C200.657 16.2409 200.531 16.3763 200.446 16.538C200.36 16.6996 200.317 16.8817 200.322 17.0658V17.0658Z" fill="#009487"/>
</svg>
